<svg width="20" height="9" viewBox="0 0 20 9" fill="none" xmlns="http://www.w3.org/2000/svg">
<path d="M0.0568182 9V0.272727H5.28977V1.21023H1.11364V4.15909H4.89773V5.09659H1.11364V9H0.0568182ZM7.09979 9V0.272727H10.0487C10.7305 0.272727 11.2901 0.389204 11.7276 0.622159C12.1651 0.852272 12.489 1.16903 12.6992 1.57244C12.9094 1.97585 13.0146 2.43466 13.0146 2.94886C13.0146 3.46307 12.9094 3.91903 12.6992 4.31676C12.489 4.71449 12.1665 5.02699 11.7319 5.25426C11.2972 5.47869 10.7418 5.59091 10.0657 5.59091H7.67933V4.63636H10.0316C10.4975 4.63636 10.8725 4.56818 11.1566 4.43182C11.4435 4.29545 11.6509 4.10227 11.7788 3.85227C11.9094 3.59943 11.9748 3.2983 11.9748 2.94886C11.9748 2.59943 11.9094 2.29403 11.7788 2.03267C11.6481 1.77131 11.4393 1.5696 11.1523 1.42756C10.8654 1.28267 10.4862 1.21023 10.0146 1.21023H8.15661V9H7.09979ZM11.2077 5.07955L13.3555 9H12.1282L10.0146 5.07955H11.2077ZM14.7756 9V0.272727H15.8324V8.0625H19.8892V9H14.7756Z" fill="#9333EA"/>
</svg>
